<?xml version="1.0" standalone="no"?>
<!DOCTYPE svg PUBLIC "-//W3C//DTD SVG 20010904//EN"
 "http://www.w3.org/TR/2001/REC-SVG-20010904/DTD/svg10.dtd">
<svg version="1.0" xmlns="http://www.w3.org/2000/svg"
 width="1024.000000pt" height="1024.000000pt" viewBox="0 0 1024.000000 1024.000000"
 preserveAspectRatio="xMidYMid meet">

<g transform="translate(0.000000,1024.000000) scale(0.100000,-0.100000)"
fill="#000000" stroke="none">
<path d="M4709 9086 c-2 -3 -31 -7 -64 -10 -79 -8 -146 -20 -280 -51 -493
-114 -922 -343 -1294 -690 -177 -165 -450 -556 -567 -811 -145 -318 -215 -607
-245 -1014 -33 -450 109 -1001 370 -1437 124 -208 223 -335 396 -509 154 -155
185 -181 330 -276 88 -58 202 -129 253 -158 283 -158 629 -279 937 -326 188
-29 626 -27 835 4 131 20 343 66 455 100 84 26 292 111 386 158 449 224 759
499 1059 939 112 164 260 468 314 645 130 431 147 867 50 1316 -69 324 -211
644 -429 974 -300 452 -820 842 -1350 1013 -317 102 -486 128 -876 133 -152 2
-278 2 -280 0z m106 -184 c-3 -3 -11 0 -18 7 -9 10 -8 11 6 5 10 -3 15 -9 12
-12z m61 -7 c-10 -8 -23 -12 -28 -9 -14 9 2 24 25 24 21 -1 21 -1 3 -15z m269
7 c11 -8 18 -32 10 -32 -10 0 -65 30 -65 35 0 8 44 5 55 -3z m210 -122 c3 -6
-1 -7 -9 -4 -18 7 -21 14 -7 14 6 0 13 -4 16 -10z m-781 -12 c-5 -8 -2 -9 9
-5 23 9 21 0 -2 -13 -16 -8 -19 -7 -16 8 5 23 4 22 11 22 3 0 2 -5 -2 -12z
m539 -66 c56 -27 135 -61 175 -76 39 -15 72 -32 72 -37 0 -11 -114 -63 -210
-95 -76 -25 -182 -75 -543 -255 -108 -55 -202 -99 -207 -99 -6 0 -41 20 -78
44 -37 24 -99 62 -138 84 -95 55 -103 66 -62 82 18 8 103 47 188 88 85 41 252
119 370 173 118 55 233 108 255 119 22 10 48 19 58 19 10 1 64 -21 120 -47z
m322 38 c3 -6 -1 -7 -9 -4 -18 7 -21 14 -7 14 6 0 13 -4 16 -10z m125 -50 c0
-5 -5 -10 -11 -10 -5 0 -7 5 -4 10 3 6 8 10 11 10 2 0 4 -4 4 -10z m-1150 -15
c0 -2 -15 -12 -32 -20 l-33 -16 25 20 c24 20 40 26 40 16z m-90 -49 c0 -2 -7
-7 -16 -10 -8 -3 -12 -2 -9 4 6 10 25 14 25 6z m-64 -22 c-8 -8 -21 -14 -28
-13 -10 0 -10 2 0 6 6 2 10 8 8 12 -3 4 4 8 15 8 17 2 17 0 5 -13z m-161 -74
c3 -5 1 -10 -4 -10 -6 0 -11 5 -11 10 0 6 2 10 4 10 3 0 8 -4 11 -10z m1830
-8 c-3 -3 -11 0 -18 7 -9 10 -8 11 6 5 10 -3 15 -9 12 -12z m-1866 -1 c7 -5 9
-11 5 -14 -5 -3 -15 1 -22 9 -14 16 -5 18 17 5z m1522 -42 c85 -35 246 -98
272 -106 23 -7 22 -15 -5 -32 -39 -25 -951 -493 -1453 -746 -509 -256 -664
-337 -759 -393 l-59 -35 -296 148 c-163 81 -356 179 -430 218 l-133 71 28 26
c36 31 360 211 504 278 58 27 179 88 270 136 91 48 226 116 300 151 l135 63
11 -44 c14 -57 25 -68 101 -104 79 -37 143 -77 143 -89 0 -5 -21 -14 -47 -21
-27 -6 -81 -27 -121 -46 -41 -19 -76 -34 -79 -34 -10 0 -548 -272 -589 -298
-61 -38 -68 -54 -45 -100 26 -50 45 -65 73 -57 13 4 226 107 473 230 609 303
1127 556 1260 617 61 28 116 55 124 61 8 7 11 24 8 49 -3 21 -1 36 4 32 5 -3
9 -1 9 4 0 5 26 8 58 8 41 0 68 6 97 21 53 29 60 28 146 -8z m-1631 -29 c-8
-5 -19 -10 -25 -10 -5 0 -3 5 5 10 8 5 20 10 25 10 6 0 3 -5 -5 -10z m-155
-70 c3 -6 -1 -7 -9 -4 -18 7 -21 14 -7 14 6 0 13 -4 16 -10z m2384 -33 c0 -12
-1 -37 0 -55 1 -41 21 -33 21 9 0 34 19 40 21 7 1 -17 2 -19 6 -5 3 13 15 17
49 17 47 0 50 -6 45 -67 -1 -13 3 -23 8 -23 6 0 8 7 5 15 -4 8 -1 15 5 15 6 0
11 -6 11 -12 0 -10 2 -10 8 0 5 7 24 14 43 16 19 2 25 1 14 -1 -11 -3 -27 -11
-35 -18 -14 -12 -204 -105 -216 -105 -2 0 -4 54 -4 121 0 82 3 118 11 114 5
-4 9 -17 8 -28z m225 -36 c3 -4 -6 -6 -19 -3 -14 2 -25 6 -25 8 0 8 39 4 44
-5z m-54 -12 c0 -6 9 -8 20 -4 11 3 20 2 20 -3 0 -16 -31 -23 -46 -11 -16 13
-18 29 -4 29 6 0 10 -5 10 -11z m-3080 -22 c0 -2 -15 -16 -32 -33 l-33 -29 29
33 c28 30 36 37 36 29z m3290 -57 c8 -5 11 -10 5 -10 -5 0 -17 5 -25 10 -8 5
-10 10 -5 10 6 0 17 -5 25 -10z m-3389 -41 c-17 -17 -31 -28 -31 -24 0 11 52
66 58 61 2 -3 -10 -19 -27 -37z m2814 -147 c-3 -9 -13 -12 -25 -9 -11 3 -18 2
-15 -3 2 -4 -17 -16 -43 -25 -26 -10 -67 -29 -91 -42 -42 -22 -61 -23 -61 -1
0 5 7 7 16 4 9 -3 27 3 41 14 21 17 23 20 8 20 -10 0 -16 3 -12 6 3 4 24 6 47
6 30 -1 43 4 50 19 6 10 8 19 4 19 -4 0 2 10 14 23 17 18 20 30 15 65 -5 40
-24 55 -38 32 -4 -6 1 -7 11 -3 12 4 15 3 10 -6 -4 -6 -16 -9 -26 -6 -10 3
-21 2 -24 -3 -3 -6 4 -12 16 -15 12 -4 19 -9 16 -12 -3 -4 -15 -2 -26 4 -26
14 -55 14 -47 1 3 -5 4 -10 1 -10 -3 0 -8 4 -11 10 -3 5 34 29 82 53 l88 43 3
-85 c2 -46 0 -91 -3 -99z m799 159 c3 -5 -2 -15 -12 -22 -15 -13 -16 -12 -4 3
10 13 10 17 0 21 -9 4 -9 6 -1 6 6 1 14 -3 17 -8z m119 -141 c-3 -3 -8 1 -10
8 -3 6 -10 9 -15 6 -6 -4 -8 -2 -4 4 3 6 2 13 -4 17 -5 3 -10 1 -10 -6 0 -8
-6 -6 -18 4 -10 10 -22 15 -25 12 -4 -3 -5 -2 -2 2 3 3 0 12 -6 20 -9 9 -8 13
0 13 6 0 11 -5 11 -11 0 -5 5 -7 10 -4 8 5 7 11 -1 21 -6 7 -15 12 -18 9 -4
-2 -8 3 -8 12 0 10 22 -7 53 -43 29 -32 50 -61 47 -64z m-3606 85 c0 -8 -4
-12 -9 -9 -5 3 -6 10 -3 15 9 13 12 11 12 -6z m-177 -5 c0 -5 -5 -10 -11 -10
-5 0 -7 5 -4 10 3 6 8 10 11 10 2 0 4 -4 4 -10z m2667 -24 c-14 -11 -15 -15
-5 -20 7 -3 4 -4 -8 -1 -13 3 -27 -2 -39 -15 -10 -11 -25 -20 -33 -20 -17 0
16 28 63 53 37 20 46 21 22 3z m90 -12 c-3 -3 -12 -4 -19 -1 -8 3 -5 6 6 6 11
1 17 -2 13 -5z m38 -4 c-3 -5 -11 -10 -16 -10 -6 0 -7 5 -4 10 3 6 11 10 16
10 6 0 7 -4 4 -10z m-240 -50 c3 -6 -1 -7 -9 -4 -18 7 -21 14 -7 14 6 0 13 -4
16 -10z m-73 -27 c-6 -2 -10 -9 -7 -14 4 -5 0 -6 -8 -3 -8 3 -18 1 -22 -5 -3
-6 -14 -11 -23 -11 -10 1 -3 9 18 20 19 11 40 19 45 19 6 0 4 -3 -3 -6z
m-2587 -22 c-3 -6 -11 -11 -16 -11 -5 0 -4 6 3 14 14 16 24 13 13 -3z m2493
-25 c-10 -7 -15 -16 -11 -20 4 -4 -1 -4 -11 0 -17 6 -16 8 5 20 31 17 39 17
17 0z m292 10 c0 -3 -4 -8 -10 -11 -5 -3 -10 -1 -10 4 0 6 5 11 10 11 6 0 10
-2 10 -4z m-381 -61 c-13 -13 -34 -25 -47 -25 -13 0 -21 -4 -18 -9 6 -10 -10
-25 -36 -34 -11 -4 -15 -1 -14 10 3 16 41 42 64 43 8 0 25 9 39 20 35 27 40
25 12 -5z m321 16 c0 -9 -86 -61 -121 -73 -34 -13 -14 24 24 43 21 11 36 16
32 10 -10 -18 11 -12 36 9 28 23 29 23 29 11z m-150 -78 c0 -10 -118 -73 -141
-77 -10 -1 -23 -7 -30 -13 -8 -6 -77 -41 -154 -77 -77 -37 -151 -74 -165 -82
-60 -36 -140 -74 -140 -67 0 5 -4 3 -8 -3 -4 -6 -39 -27 -79 -47 -56 -28 -70
-32 -68 -19 2 9 4 21 4 26 1 5 8 3 16 -4 13 -10 19 -10 33 2 9 9 26 18 37 22
11 3 33 17 49 31 20 18 36 23 50 19 19 -6 20 -5 6 12 -11 15 -11 16 0 7 19
-17 35 -16 21 1 -9 11 -6 13 14 11 13 -2 36 5 49 16 13 10 29 19 35 19 22 0
80 34 74 43 -3 6 -1 7 5 3 12 -7 103 36 103 49 1 4 -5 12 -13 17 -10 8 -10 9
2 5 8 -2 26 -7 40 -11 24 -7 24 -7 5 9 -18 15 -17 15 15 9 28 -4 32 -3 20 6
-12 10 -11 11 8 7 12 -3 22 -1 22 3 0 5 9 12 20 15 12 4 17 11 13 18 -4 8 -2
8 9 -1 16 -13 48 -7 48 9 0 5 8 9 18 10 12 1 9 4 -8 10 -21 7 -18 8 13 4 24
-2 42 1 50 10 13 16 27 19 27 8z m-345 -33 c-3 -5 -16 -10 -28 -9 -21 0 -21 1
-2 9 28 12 37 12 30 0z m-58 -24 c0 -8 -6 -12 -15 -9 -11 5 -11 7 0 14 7 5 13
9 14 9 0 0 1 -6 1 -14z m193 -6 c0 -5 -4 -10 -10 -10 -5 0 -10 5 -10 10 0 6 5
10 10 10 6 0 10 -4 10 -10z m-109 -57 c13 -16 12 -17 -3 -4 -10 7 -18 15 -18
17 0 8 8 3 21 -13z m-231 -8 c0 -2 -10 -9 -22 -15 -22 -11 -22 -10 -4 4 21 17
26 19 26 11z m-86 -50 c-4 -8 -10 -15 -14 -15 -5 0 -17 -3 -27 -6 -10 -3 -4 3
12 14 37 25 36 25 29 7z m-99 -63 c-3 -3 -11 0 -18 7 -9 10 -8 11 6 5 10 -3
15 -9 12 -12z m-60 -12 c-3 -5 -16 -15 -28 -21 -19 -9 -19 -8 3 10 28 23 34
26 25 11z m-79 -47 c-2 -12 -12 -18 -29 -18 -15 -1 -27 0 -27 2 0 2 50 31 57
33 1 0 0 -8 -1 -17z m-167 -77 c-2 -2 -15 -9 -29 -15 -24 -11 -24 -11 -6 3 16
13 49 24 35 12z m-1724 -113 c86 -43 613 -313 664 -340 l53 -28 -6 -190 c-4
-104 -8 -191 -11 -193 -4 -4 -96 46 -426 229 -103 57 -272 147 -377 199 -219
110 -203 82 -141 245 22 55 42 114 45 132 l6 31 76 -32 c43 -18 95 -42 117
-53z m1646 54 c-8 -8 -14 -7 -23 2 -11 10 -9 11 6 5 15 -6 17 -4 11 6 -6 9 -4
11 4 5 9 -5 10 -10 2 -18z m266 4 c-21 -10 -43 -23 -49 -29 -6 -6 -17 -8 -26
-5 -11 5 -13 3 -7 -7 5 -9 4 -11 -4 -6 -15 10 -3 29 15 22 7 -3 16 -1 19 5 7
10 64 37 80 37 6 0 -7 -8 -28 -17z m-307 -15 c0 -2 -7 -7 -16 -10 -8 -3 -12
-2 -9 4 6 10 25 14 25 6z m-65 -26 c-3 -5 -12 -10 -18 -10 -7 0 -6 4 3 10 19
12 23 12 15 0z m-35 -15 c0 -7 -77 -45 -92 -45 -7 0 10 11 37 24 59 29 55 27
55 21z m291 -9 c-14 -8 -32 -11 -40 -8 -9 3 -12 1 -8 -5 4 -7 -14 -21 -43 -36
-27 -14 -50 -21 -50 -17 0 5 13 14 29 21 21 9 26 16 18 22 -7 5 -4 6 9 2 15
-4 24 0 28 11 3 9 12 14 19 11 8 -3 20 -1 28 4 8 5 19 9 24 8 6 0 -1 -6 -14
-13z m-417 -54 c2 -4 -5 -9 -17 -9 -17 -2 -19 0 -7 7 18 12 18 12 24 2z m-47
-26 c0 -8 -5 -12 -11 -10 -6 2 -18 -1 -26 -6 -13 -9 -13 -11 0 -20 11 -7 5 -8
-19 -3 -24 4 -32 3 -27 -5 3 -6 -2 -16 -13 -21 -15 -9 -19 -8 -17 5 1 9 27 29
57 44 30 16 54 29 55 29 0 1 1 -5 1 -13z m258 -29 c-65 -44 -217 -116 -231
-110 -11 4 -15 3 -10 -5 3 -6 2 -13 -3 -16 -11 -7 -9 20 2 31 4 4 20 7 35 8
15 0 26 6 25 13 -2 7 4 9 14 5 11 -4 14 -3 9 5 -4 7 -2 10 6 7 7 -2 45 13 83
34 69 38 108 54 70 28z m-70 -15 c-3 -3 -11 0 -18 7 -9 10 -8 11 6 5 10 -3 15
-9 12 -12z m-360 -51 c3 -5 0 -13 -6 -17 -8 -5 -9 -3 -4 6 6 9 1 10 -16 5 -19
-5 -21 -4 -9 4 19 13 27 14 35 2z m-55 -21 c0 -5 -5 -10 -11 -10 -5 0 -7 5 -4
10 3 6 8 10 11 10 2 0 4 -4 4 -10z m65 -20 c3 -6 -1 -7 -9 -4 -18 7 -21 14 -7
14 6 0 13 -4 16 -10z m-175 -40 c-14 -11 -29 -20 -35 -20 -5 0 -3 -5 5 -11 12
-8 10 -9 -9 -4 -15 5 -21 3 -17 -3 3 -6 1 -14 -5 -18 -8 -4 -9 -3 -5 4 4 7 3
12 -2 12 -5 0 -15 -12 -22 -26 -13 -23 -12 -27 4 -36 17 -9 17 -10 -1 -24 -11
-8 -13 -13 -5 -14 6 0 12 -9 12 -20 0 -10 9 -24 21 -30 15 -9 18 -15 9 -24 -6
-8 -15 -78 -21 -157 -7 -100 -15 -148 -25 -159 -13 -13 -14 17 -12 234 l3 248
60 34 c68 38 81 42 45 14z m297 2 c7 -4 -12 -20 -50 -41 -34 -19 -56 -27 -49
-19 7 9 9 18 5 20 -4 3 -2 3 5 1 22 -5 36 8 21 19 -10 7 -8 8 7 3 29 -8 61 4
42 16 -7 5 -8 9 -3 9 6 0 15 -4 22 -8z m-152 -97 c-22 -13 -46 -25 -52 -25 -7
0 -13 -4 -13 -8 0 -5 -17 -17 -37 -28 -21 -10 -46 -25 -55 -33 -16 -12 -21
-12 -38 4 -11 10 -20 25 -19 34 0 10 3 8 9 -6 5 -13 17 -23 27 -23 15 0 15 2
-3 16 -18 15 -18 15 3 5 27 -14 36 -14 28 -1 -4 6 1 7 11 3 13 -5 15 -3 9 7
-5 9 -4 11 4 6 6 -4 24 0 39 10 42 28 106 62 117 63 6 1 -8 -10 -30 -24z
m-1321 -136 c-3 -5 3 -6 12 -2 13 5 15 3 9 -7 -5 -8 -4 -11 2 -7 6 4 27 -2 48
-12 21 -10 34 -20 29 -23 -5 -3 -4 -3 3 -2 7 2 25 -3 40 -11 15 -7 63 -30 106
-49 52 -24 76 -39 71 -47 -4 -7 -3 -9 4 -5 10 6 72 -21 116 -50 17 -12 17 -13
-10 -10 -16 1 -28 8 -26 14 3 16 -17 15 -48 -3 -14 -8 -29 -14 -35 -14 -5 0 6
9 25 20 32 19 30 19 -17 3 -15 -5 -15 -3 2 11 20 17 20 17 -6 13 -27 -5 -49
12 -49 37 0 8 -4 15 -10 15 -5 0 -10 -4 -10 -10 0 -5 -9 -10 -21 -10 -11 0
-17 5 -14 10 3 6 -1 10 -9 10 -9 0 -16 -4 -16 -9 0 -5 -10 -9 -22 -9 -13 0
-40 -1 -60 -2 -23 -1 -44 4 -53 14 -21 21 -31 21 -14 0 12 -15 9 -16 -33 -13
l-46 4 -4 -47 c-2 -36 1 -49 15 -57 9 -6 17 -16 17 -23 0 -6 -9 -3 -20 7 -11
10 -23 15 -27 11 -4 -3 3 -14 16 -22 12 -9 20 -22 17 -30 -4 -11 3 -13 32 -9
26 3 33 2 22 -5 -11 -7 -7 -10 18 -10 39 0 96 -36 88 -55 -3 -8 2 -11 14 -8
22 6 36 -13 14 -21 -10 -4 -13 -2 -8 6 5 8 2 9 -10 5 -11 -4 -29 0 -44 11 -15
10 -42 24 -59 31 -18 8 -30 18 -26 23 3 6 0 8 -8 6 -14 -5 -61 14 -88 35 -7 6
-18 12 -25 13 -27 5 -95 41 -89 48 4 4 -1 4 -11 0 -17 -6 -18 -4 -13 22 3 16
14 93 24 171 l18 141 87 -45 c49 -25 85 -49 82 -54z m1490 17 c-3 -9 -12 -12
-22 -9 -15 6 -9 11 25 22 1 1 0 -5 -3 -13z m3353 -18 c-3 -7 -5 -2 -5 12 0 14
2 19 5 13 2 -7 2 -19 0 -25z m10 -55 c-3 -10 -5 -4 -5 12 0 17 2 24 5 18 2 -7
2 -21 0 -30z m-1468 -53 c0 -10 -3 -8 -9 5 -12 27 -12 43 0 25 5 -8 9 -22 9
-30z m1488 -77 c-3 -10 -5 -4 -5 12 0 17 2 24 5 18 2 -7 2 -21 0 -30z m-4320
-83 c3 0 2 -7 -1 -16 -5 -13 -4 -14 7 -5 11 9 20 6 41 -10 14 -11 26 -27 26
-35 0 -8 4 -14 10 -14 5 0 7 7 3 16 -5 15 -3 15 20 -1 32 -21 25 -39 -12 -31
-14 3 -20 3 -13 0 6 -3 12 -10 12 -15 0 -6 -8 -5 -20 1 -11 6 -18 15 -15 19 2
5 -2 14 -11 21 -8 7 -12 20 -10 27 4 11 0 13 -15 8 -11 -4 -26 -2 -33 4 -7 6
-24 10 -36 9 -19 -3 -24 2 -25 24 l-2 27 35 -15 c19 -7 37 -14 39 -14z m-487
-15 c0 -8 -7 -15 -15 -15 -13 0 -14 3 -3 15 16 18 18 18 18 0z m87 -54 c0 -13
-2 -19 -6 -13 -3 6 -19 18 -35 26 l-29 15 34 -2 c28 -2 34 -6 36 -26z m410
-23 c-3 -8 -6 -5 -6 6 -1 11 2 17 5 13 3 -3 4 -12 1 -19z m155 -6 c2 -4 38
-24 81 -45 42 -21 77 -40 77 -42 0 -2 -7 -1 -17 2 -11 4 -14 3 -9 -6 4 -6 15
-9 25 -6 27 8 567 -275 553 -290 -4 -5 -2 -5 5 -2 6 4 19 4 28 1 13 -6 14 -9
3 -16 -9 -7 -8 -8 5 -4 23 7 60 -11 51 -26 -4 -6 -3 -8 4 -4 14 9 103 -35 95
-47 -3 -6 -1 -7 5 -3 14 9 63 -14 55 -27 -3 -6 -1 -7 5 -3 17 10 105 -36 89
-47 -8 -6 -7 -7 5 -4 15 5 222 -93 390 -185 l57 -31 -1 -169 c0 -92 -3 -168
-6 -168 -19 0 -151 73 -147 81 3 5 0 6 -8 3 -8 -3 -36 7 -63 22 -27 15 -59 33
-71 39 -13 7 -19 16 -15 20 4 5 2 5 -5 2 -13 -8 -132 49 -151 72 -8 9 -11 10
-7 4 3 -7 -14 -3 -38 10 -24 12 -42 26 -39 31 3 5 0 6 -7 2 -6 -4 -23 1 -39
11 -15 10 -52 30 -82 43 -30 13 -69 34 -86 47 -17 12 -35 19 -39 15 -5 -4 -5
-1 -1 6 5 9 12 9 27 2 11 -6 19 -7 19 -2 0 13 -35 21 -50 12 -18 -11 -54 11
-37 22 7 5 1 6 -13 3 -28 -6 -126 46 -113 60 5 4 1 6 -7 3 -8 -3 -21 2 -28 11
-9 11 -11 11 -6 1 9 -17 -85 36 -104 59 -8 9 -11 10 -7 4 4 -9 1 -11 -9 -7 -9
3 -13 11 -9 17 3 6 1 7 -6 3 -6 -4 -47 12 -91 35 -68 37 -78 45 -67 58 11 14
10 14 -6 2 -14 -12 -23 -12 -37 -3 -33 20 -204 115 -243 134 -21 10 -35 23
-32 28 3 6 0 7 -8 4 -8 -3 -21 1 -28 8 -8 7 -22 14 -32 16 -33 6 -112 58 -116
78 -2 10 -13 27 -24 36 -25 22 -34 23 -16 2 18 -22 20 -44 3 -37 -7 3 -12 10
-11 16 1 6 -14 14 -33 17 -47 8 -65 19 -52 32 7 7 16 6 29 -2 17 -11 17 -11 0
-6 -11 3 -15 2 -12 -4 8 -12 45 -13 45 -1 0 5 16 9 35 9 19 0 35 -4 35 -10 0
-5 9 -21 19 -34 22 -28 38 -17 16 12 -23 30 -18 34 45 34 53 0 60 -2 60 -20 0
-17 7 -20 39 -20 l40 0 3 53 c2 37 7 51 16 49 8 -1 12 3 9 10 -6 19 47 48 55
30z m3868 4 c0 -2 -7 -7 -16 -10 -8 -3 -12 -2 -9 4 6 10 25 14 25 6z m-4350
-36 c0 -5 -8 -11 -17 -11 -17 -1 -17 -2 0 -6 9 -2 17 -9 17 -14 0 -5 7 -9 15
-9 8 0 15 -7 15 -16 0 -14 -2 -14 -16 -3 -9 8 -22 14 -28 14 -6 1 -19 5 -29 9
-17 8 -16 10 10 27 33 22 33 22 33 9z m80 -12 c0 -6 -6 -5 -15 2 -8 7 -15 14
-15 16 0 2 7 1 15 -2 8 -4 15 -11 15 -16z m-378 -92 c216 -110 625 -324 663
-346 34 -20 317 -170 530 -280 77 -40 201 -105 275 -145 74 -40 268 -139 430
-220 162 -81 314 -159 338 -172 l42 -25 0 -185 c0 -101 -3 -183 -7 -181 -39
17 -212 108 -263 138 -36 21 -159 86 -275 145 -115 59 -246 127 -290 150 -134
71 -332 178 -485 260 -80 43 -219 117 -310 165 -91 48 -203 108 -250 134 -173
94 -407 215 -476 246 l-71 31 -7 117 c-3 64 -9 147 -12 185 -4 37 -4 67 -1 67
3 0 79 -38 169 -84z m353 74 c4 -6 11 -8 16 -5 5 4 9 1 9 -4 0 -15 -13 -14
-36 4 -10 8 -14 15 -7 15 6 0 15 -5 18 -10z m302 -26 c-3 -3 -12 -4 -19 -1 -8
3 -5 6 6 6 11 1 17 -2 13 -5z m4300 -91 c-3 -10 -5 -2 -5 17 0 19 2 27 5 18 2
-10 2 -26 0 -35z m-2690 -155 c-3 -8 -6 -5 -6 6 -1 11 2 17 5 13 3 -3 4 -12 1
-19z m1053 12 c-8 -5 -19 -10 -25 -10 -5 0 -3 5 5 10 8 5 20 10 25 10 6 0 3
-5 -5 -10z m-1050 -210 c0 -31 -3 -38 -15 -34 -8 4 -15 10 -15 16 0 5 5 6 10
3 6 -4 10 7 10 24 0 17 2 31 5 31 3 0 5 -18 5 -40z m-2336 -118 c13 -9 21 -23
18 -30 -2 -6 3 -19 11 -27 17 -17 31 -20 22 -5 -3 5 0 7 8 4 20 -7 17 -34 -4
-31 -9 2 -25 9 -36 17 -12 10 -15 10 -6 1 6 -7 9 -21 6 -30 -4 -12 -3 -13 5
-2 6 8 12 9 16 3 3 -6 2 -13 -4 -17 -15 -9 -12 -25 3 -19 16 6 31 -11 42 -44
6 -21 4 -23 -14 -17 -25 8 -29 -10 -4 -19 12 -5 13 -10 5 -18 -13 -13 -4 -40
11 -31 6 3 7 1 3 -5 -4 -7 -1 -26 7 -44 8 -18 19 -46 26 -63 10 -28 10 -29 -4
-11 -8 11 -15 25 -15 31 0 6 -11 33 -24 61 -38 80 -112 314 -99 314 3 0 15 -8
27 -18z m4956 3 c0 -8 -2 -15 -4 -15 -2 0 -6 7 -10 15 -3 8 -1 15 4 15 6 0 10
-7 10 -15z m-15 -65 c-4 -17 -9 -30 -11 -27 -2 2 -1 18 2 36 4 17 9 30 11 27
3 -2 2 -19 -2 -36z m-4755 -40 c0 -5 -2 -10 -4 -10 -3 0 -8 5 -11 10 -3 6 -1
10 4 10 6 0 11 -4 11 -10z m-77 -165 c-3 -9 -8 -14 -10 -11 -3 3 -2 9 2 15 9
16 15 13 8 -4z m3132 -15 c-3 -5 -12 -10 -18 -10 -7 0 -6 4 3 10 19 12 23 12
15 0z m-2665 -30 c8 -5 11 -10 5 -10 -5 0 -17 5 -25 10 -8 5 -10 10 -5 10 6 0
17 -5 25 -10z m1907 -142 c-3 -7 -5 -2 -5 12 0 14 2 19 5 13 2 -7 2 -19 0 -25z
m-2282 -8 c3 -6 -1 -7 -9 -4 -18 7 -21 14 -7 14 6 0 13 -4 16 -10z m170 -80
c13 -6 15 -9 5 -9 -8 0 -22 4 -30 9 -18 12 -2 12 25 0z m61 -36 c18 -14 18
-14 -6 -3 -31 14 -36 19 -24 19 6 0 19 -7 30 -16z m677 -37 c-3 -5 3 -6 15 -3
24 8 41 -12 21 -25 -9 -7 -5 -7 14 -3 18 4 27 2 27 -6 0 -7 7 -10 16 -6 8 3
22 0 30 -8 19 -20 18 -25 -5 -19 -10 3 -28 -4 -40 -14 l-22 -18 23 -7 c18 -5
15 -6 -15 -7 -36 -1 -75 -16 -89 -35 -11 -16 -58 45 -58 76 0 47 28 87 61 86
16 -1 26 -5 22 -11z m-588 -7 c3 -6 -1 -7 -9 -4 -18 7 -21 14 -7 14 6 0 13 -4
16 -10z m1965 -90 c-6 -42 -8 -47 -9 -20 -1 34 8 84 14 78 2 -2 0 -28 -5 -58z
m-1833 26 c0 -8 -6 -12 -15 -9 -11 5 -11 7 0 14 7 5 13 9 14 9 0 0 1 -6 1 -14z
m2893 -1 c0 -8 -2 -15 -4 -15 -2 0 -6 7 -10 15 -3 8 -1 15 4 15 6 0 10 -7 10
-15z m-3235 -35 c3 -6 -1 -7 -9 -4 -18 7 -21 14 -7 14 6 0 13 -4 16 -10z m440
-20 c3 -6 -1 -7 -9 -4 -18 7 -21 14 -7 14 6 0 13 -4 16 -10z m2982 -12 c-3 -8
-6 -5 -6 6 -1 11 2 17 5 13 3 -3 4 -12 1 -19z m-2802 -78 c39 -26 54 -26 24
-1 l-24 20 23 -6 c12 -3 22 -10 22 -15 0 -6 6 -8 14 -5 10 4 13 -1 11 -18 -2
-19 4 -25 26 -30 16 -4 29 -11 29 -16 0 -6 6 -9 13 -8 6 0 23 -2 36 -7 23 -7
23 -8 5 -14 -12 -5 -32 1 -54 15 -19 12 -43 24 -52 28 -12 4 -15 12 -11 23 5
14 3 16 -11 11 -15 -6 -96 26 -96 38 0 10 16 4 45 -15z m2825 -74 c0 -2 -7 -7
-16 -10 -8 -3 -12 -2 -9 4 6 10 25 14 25 6z m-2005 -26 c3 -6 -1 -7 -9 -4 -18
7 -21 14 -7 14 6 0 13 -4 16 -10z m48 -22 c15 -12 14 -13 -10 -14 -16 -1 -22
1 -14 3 11 5 11 7 0 14 -8 5 -9 9 -3 9 5 0 18 -6 27 -12z m703 -44 c-10 -26
-23 -14 -18 17 4 26 6 29 14 15 5 -10 7 -24 4 -32z m-1217 -30 c14 -12 -19 -1
-35 12 -18 14 -18 14 6 3 14 -6 27 -13 29 -15z m855 -92 c2 -4 -5 -9 -17 -9
-17 -2 -19 0 -7 7 18 12 18 12 24 2z m66 -37 c14 -8 21 -14 15 -14 -5 0 -21 6
-35 14 -14 8 -20 14 -15 14 6 0 21 -6 35 -14z m52 -30 c0 -5 -5 -10 -11 -11
-8 -2 -7 -1 0 3 8 4 7 8 -2 15 -11 8 -11 9 -1 6 8 -2 14 -8 14 -13z m47 -22
c6 -10 11 -14 11 -9 0 5 9 -1 20 -14 21 -24 26 -35 12 -26 -4 2 -6 -53 -4
-122 2 -70 0 -142 -3 -159 l-6 -33 -37 15 c-43 19 -74 44 -66 56 3 5 -2 6 -11
3 -11 -5 -14 -2 -9 10 3 9 11 16 17 16 6 0 8 3 5 6 -4 3 -15 1 -27 -5 -19 -11
-19 -10 -6 16 8 14 11 31 8 36 -3 6 -1 7 4 4 20 -13 72 23 82 56 7 25 9 27 10
10 1 -13 6 -23 12 -23 6 0 8 8 4 19 -11 35 -8 93 4 101 9 5 10 9 2 14 -10 7
-31 -31 -31 -56 0 -6 -3 -9 -6 -5 -4 3 -1 20 4 37 13 36 5 63 -15 56 -8 -3
-11 -1 -8 4 9 15 23 12 34 -7z m-614 -23 c3 -6 -1 -7 -9 -4 -18 7 -21 14 -7
14 6 0 13 -4 16 -10z m40 0 c3 -6 -1 -7 -9 -4 -18 7 -21 14 -7 14 6 0 13 -4
16 -10z"/>
<path d="M6236 8228 c3 -4 -3 -8 -13 -9 -11 0 -13 -3 -5 -6 7 -3 19 0 27 7 8
6 19 9 24 5 6 -3 18 -2 27 3 11 6 4 9 -24 8 -23 0 -38 -4 -36 -8z"/>
<path d="M6180 8209 c0 -5 5 -7 10 -4 6 3 10 8 10 11 0 2 -4 4 -10 4 -5 0 -10
-5 -10 -11z"/>
<path d="M5925 8060 c-6 -11 42 -26 52 -16 4 3 -5 6 -18 7 -22 0 -23 1 -4 9
19 8 19 9 -2 9 -12 1 -25 -3 -28 -9z"/>
<path d="M5921 8024 c0 -11 3 -14 6 -6 3 7 2 16 -1 19 -3 4 -6 -2 -5 -13z"/>
<path d="M6835 8111 c-6 -11 13 -26 22 -17 4 3 1 6 -6 6 -7 0 -9 5 -6 10 3 6
4 10 1 10 -3 0 -7 -4 -11 -9z"/>
<path d="M5320 7870 c-8 -5 -10 -10 -5 -10 6 0 17 5 25 10 8 5 11 10 5 10 -5
0 -17 -5 -25 -10z"/>
<path d="M5620 7880 c-13 -8 -13 -10 2 -10 9 0 20 5 23 10 8 13 -5 13 -25 0z"/>
<path d="M5308 7723 c7 -3 16 -2 19 1 4 3 -2 6 -13 5 -11 0 -14 -3 -6 -6z"/>
<path d="M4965 7550 c-3 -6 1 -7 9 -4 18 7 21 14 7 14 -6 0 -13 -4 -16 -10z"/>
<path d="M2810 6746 c6 -6 18 -5 32 1 21 10 21 10 -9 9 -19 -1 -28 -5 -23 -10z"/>
<path d="M2535 6640 c-3 -5 -2 -10 4 -10 5 0 13 5 16 10 3 6 2 10 -4 10 -5 0
-13 -4 -16 -10z"/>
<path d="M2485 6630 c-3 -6 1 -7 9 -4 18 7 21 14 7 14 -6 0 -13 -4 -16 -10z"/>
<path d="M2553 6625 c-33 -14 -47 -30 -16 -18 12 5 14 3 8 -8 -4 -8 -5 -11 0
-7 4 4 21 -2 38 -14 20 -14 28 -17 25 -7 -2 8 -14 19 -26 25 -13 6 -26 15 -30
19 -4 5 -2 5 4 2 7 -4 17 0 24 8 15 18 14 18 -27 0z"/>
<path d="M2710 6523 c0 -5 14 -16 30 -25 34 -20 37 -17 13 12 -17 20 -43 27
-43 13z"/>
<path d="M3144 6601 c4 -5 0 -11 -6 -14 -7 -2 2 -4 20 -3 28 1 30 3 15 14 -20
14 -37 16 -29 3z"/>
<path d="M3386 6456 c3 -9 14 -16 24 -16 11 0 22 -5 26 -11 7 -12 -13 -9 -63
7 -15 5 -16 4 -3 -5 13 -10 13 -12 0 -21 -8 -5 -23 -10 -32 -10 -10 0 -18 -4
-18 -10 0 -16 30 -12 47 6 13 13 28 15 67 10 34 -4 46 -3 36 3 -8 5 -18 7 -24
4 -5 -4 -6 -1 -2 6 5 7 15 10 23 7 8 -4 11 -1 8 5 -4 6 -13 8 -21 5 -8 -3 -14
-2 -14 3 0 5 -8 11 -17 15 -10 3 -24 9 -31 12 -8 4 -10 0 -6 -10z"/>
<path d="M3558 6363 c7 -3 16 -2 19 1 4 3 -2 6 -13 5 -11 0 -14 -3 -6 -6z"/>
<path d="M3130 6340 c-8 -34 -7 -38 8 -33 9 4 13 2 9 -4 -5 -7 0 -9 13 -6 11
3 23 10 27 16 4 7 0 8 -12 4 -11 -5 -22 -1 -31 10 -7 10 -14 16 -14 13z"/>
<path d="M3218 6313 c6 -2 18 -2 25 0 6 3 1 5 -13 5 -14 0 -19 -2 -12 -5z"/>
<path d="M3186 6272 c-2 -4 9 -9 25 -10 19 -2 28 2 24 8 -7 12 -42 13 -49 2z"/>
<path d="M3265 6230 c-3 -6 1 -7 9 -4 18 7 21 14 7 14 -6 0 -13 -4 -16 -10z"/>
<path d="M3315 6200 c27 -12 43 -12 25 0 -8 5 -22 9 -30 9 -10 0 -8 -3 5 -9z"/>
<path d="M3490 6146 c0 -2 7 -7 16 -10 8 -3 12 -2 9 4 -6 10 -25 14 -25 6z"/>
<path d="M3610 6050 c-8 -5 -10 -10 -5 -10 6 0 17 5 25 10 8 5 11 10 5 10 -5
0 -17 -5 -25 -10z"/>
<path d="M4494 5886 c11 -9 24 -16 30 -16 12 0 7 5 -24 19 -24 11 -24 11 -6
-3z"/>
<path d="M4510 5850 c8 -5 20 -10 25 -10 6 0 3 5 -5 10 -8 5 -19 10 -25 10 -5
0 -3 -5 5 -10z"/>
<path d="M4115 5810 c3 -5 8 -10 11 -10 2 0 4 5 4 10 0 6 -5 10 -11 10 -5 0
-7 -4 -4 -10z"/>
<path d="M4258 5743 c7 -3 16 -2 19 1 4 3 -2 6 -13 5 -11 0 -14 -3 -6 -6z"/>
<path d="M4415 5640 c3 -5 8 -10 11 -10 2 0 4 5 4 10 0 6 -5 10 -11 10 -5 0
-7 -4 -4 -10z"/>
<path d="M4490 5590 c-9 -6 -10 -10 -3 -10 6 0 15 5 18 10 8 12 4 12 -15 0z"/>
<path d="M2847 6439 c7 -7 15 -10 18 -7 3 3 -2 9 -12 12 -14 6 -15 5 -6 -5z"/>
<path d="M3607 5219 c7 -7 15 -10 18 -7 3 3 -2 9 -12 12 -14 6 -15 5 -6 -5z"/>
<path d="M3680 5169 c0 -5 5 -7 10 -4 6 3 10 8 10 11 0 2 -4 4 -10 4 -5 0 -10
-5 -10 -11z"/>
<path d="M4835 4570 c-3 -5 -1 -10 4 -10 6 0 11 5 11 10 0 6 -2 10 -4 10 -3 0
-8 -4 -11 -10z"/>
<path d="M4831 4454 c0 -11 3 -14 6 -6 3 7 2 16 -1 19 -3 4 -6 -2 -5 -13z"/>
<path d="M1760 4525 c-7 -8 -15 -34 -17 -58 -4 -36 -1 -46 22 -67 l27 -25 481
0 c481 0 482 0 504 22 44 43 37 114 -12 133 -16 6 -217 10 -509 10 -418 0
-485 -2 -496 -15z"/>
<path d="M7161 4514 c-29 -37 -26 -68 8 -106 l29 -33 496 -2 496 -3 16 25 c12
18 15 39 12 70 -10 80 30 75 -533 75 l-504 0 -20 -26z"/>
<path d="M7609 4163 l-447 -3 -16 -41 c-17 -42 -13 -62 22 -101 14 -17 52 -18
519 -18 l504 0 15 37 c16 38 12 96 -8 121 -7 8 -33 11 -77 10 -36 -2 -267 -4
-512 -5z"/>
<path d="M1760 4145 c-6 -8 -14 -31 -17 -52 -4 -31 0 -43 21 -66 l25 -27 493
2 492 3 15 38 c11 31 12 45 2 77 l-12 40 -503 0 c-429 0 -505 -2 -516 -15z"/>
<path d="M8455 3605 c-86 -40 -116 -114 -81 -198 15 -37 43 -58 99 -77 100
-32 216 80 186 182 -24 86 -124 131 -204 93z m116 -35 c53 -29 65 -122 21
-172 -25 -26 -36 -31 -75 -31 -26 0 -56 7 -71 16 -48 32 -51 114 -5 163 30 32
93 43 130 24z"/>
<path d="M8480 3532 c-16 -13 -22 -29 -22 -56 0 -56 50 -102 66 -60 10 27 7
44 -9 44 -20 0 -19 39 1 47 9 3 20 0 24 -7 9 -14 40 -7 40 9 0 14 -41 41 -61
41 -9 0 -27 -8 -39 -18z"/>
<path d="M6520 3494 c0 -10 10 -28 22 -41 l23 -24 -20 -34 c-65 -112 -95 -161
-158 -257 -38 -60 -72 -108 -76 -108 -7 0 -185 272 -227 347 l-29 52 28 28
c15 16 27 32 27 36 0 4 -106 7 -235 7 -129 0 -235 -3 -235 -8 0 -4 23 -31 50
-60 28 -30 70 -84 94 -120 23 -37 83 -130 133 -207 50 -77 122 -195 162 -262
l71 -122 0 -200 0 -201 -36 -40 c-20 -22 -35 -42 -33 -45 2 -2 101 -4 219 -5
230 -2 233 -2 191 45 -38 42 -41 61 -41 260 0 222 -5 205 98 365 31 49 93 146
137 215 159 251 198 307 237 335 21 16 39 32 39 36 -1 4 -88 8 -193 9 -106 1
-205 5 -220 10 -23 6 -28 4 -28 -11z"/>
<path d="M1692 3475 c6 -11 23 -34 39 -50 l29 -30 2 -526 2 -526 -22 -35 c-12
-20 -29 -39 -37 -42 -8 -3 -15 -12 -15 -21 0 -13 46 -15 385 -15 406 0 451 4
542 47 108 50 181 131 209 231 14 52 15 72 6 128 -17 106 -54 169 -121 211
-31 20 -58 37 -59 39 -2 1 15 21 37 43 22 22 53 64 68 93 24 46 28 64 28 138
0 73 -4 93 -28 142 -50 103 -147 162 -289 178 -46 5 -241 11 -435 12 -348 3
-351 3 -341 -17z m738 -270 c33 -17 60 -61 60 -97 0 -33 -35 -85 -69 -103 -24
-12 -66 -15 -196 -15 l-165 0 0 115 0 115 170 0 c133 0 177 -3 200 -15z m43
-487 c25 -13 57 -68 57 -99 0 -42 -40 -91 -91 -113 -42 -17 -62 -18 -213 -11
l-166 7 0 117 0 117 198 -4 c108 -2 205 -9 215 -14z"/>
<path d="M3460 3481 c0 -10 9 -26 20 -36 38 -34 34 -47 -142 -465 -22 -52 -71
-169 -108 -260 -159 -386 -170 -407 -227 -453 -49 -39 -34 -42 194 -39 120 2
220 5 222 7 1 2 -9 19 -23 38 -14 19 -26 39 -26 46 0 7 17 51 38 97 31 72 40
84 57 80 11 -2 118 -8 237 -12 l218 -7 30 -78 c16 -43 30 -82 30 -86 0 -4 -12
-24 -26 -45 -15 -21 -25 -39 -23 -41 2 -1 107 0 234 3 l229 5 -37 35 c-30 28
-57 81 -141 275 -119 276 -275 623 -319 710 -16 33 -38 84 -48 113 l-19 54 30
30 c17 16 30 33 30 36 0 4 -97 8 -215 8 -198 2 -215 1 -215 -15z m226 -473 c4
-13 31 -76 60 -140 30 -65 54 -124 54 -133 0 -13 -20 -15 -130 -15 l-130 0 35
96 c44 122 85 214 96 214 4 0 11 -10 15 -22z"/>
<path d="M4386 3480 c34 -78 36 -96 29 -245 l-6 -150 36 50 c20 27 41 53 48
56 7 4 85 9 175 11 l162 5 0 -352 c0 -194 3 -392 6 -441 l7 -89 -38 -45 -38
-45 209 -5 c115 -3 211 -4 214 -2 2 2 -1 11 -8 20 -52 72 -53 76 -48 136 3 32
6 232 6 443 l0 385 151 -4 c167 -3 150 3 216 -84 l22 -29 0 156 c1 86 4 176 7
200 l6 44 -581 0 c-513 0 -580 -2 -575 -15z"/>
<path d="M7080 3486 c0 -5 18 -28 40 -52 l40 -44 2 -482 c2 -266 3 -504 2
-529 0 -38 -6 -53 -32 -83 -58 -66 -58 -66 183 -66 118 0 215 3 215 8 0 4 -13
22 -30 40 -16 18 -32 43 -35 55 -2 12 -6 95 -7 184 l-3 162 64 3 c34 2 66 1
70 -2 5 -3 36 -50 71 -105 35 -55 87 -135 117 -178 55 -82 63 -106 38 -127 -8
-7 -15 -19 -15 -26 0 -12 41 -14 225 -14 124 0 225 3 225 6 0 3 -21 30 -47 58
-64 70 -253 368 -253 398 0 3 33 21 74 41 160 80 234 250 192 446 -37 174
-154 277 -341 301 -103 12 -795 18 -795 6z m757 -292 c68 -51 91 -130 57 -195
-26 -51 -62 -59 -259 -59 l-175 0 0 141 0 140 174 -3 c159 -3 177 -5 203 -24z"/>
<path d="M3274 1940 c3 -19 6 -129 6 -243 l0 -209 158 4 c153 3 160 4 199 30
29 19 46 40 58 72 21 55 14 90 -25 124 l-29 25 25 29 c44 53 21 131 -50 173
-39 23 -53 25 -195 27 l-153 3 6 -35z m254 -79 c8 -5 12 -21 10 -37 -3 -28 -5
-29 -65 -32 l-63 -3 0 35 c0 28 4 35 23 39 39 8 82 7 95 -2z m38 -208 c10 -39
-17 -54 -91 -51 l-60 3 -3 38 -3 37 75 0 c73 0 76 -1 82 -27z"/>
<path d="M3930 1733 l0 -243 49 0 c27 0 56 -3 65 -6 14 -5 16 5 16 75 0 79 1
81 24 81 20 0 36 -16 78 -75 l52 -76 68 2 c37 1 68 6 68 11 0 4 -20 39 -45 77
l-46 68 35 35 c82 82 65 210 -36 268 -40 23 -52 25 -185 25 l-143 0 0 -242z
m276 102 c21 -32 12 -71 -18 -79 -13 -3 -47 -6 -75 -6 l-53 0 0 55 0 55 65 0
c58 0 66 -3 81 -25z"/>
<path d="M4530 1796 c0 -100 3 -210 6 -242 l6 -59 62 0 61 0 3 242 4 243 -71
0 -71 0 0 -184z"/>
<path d="M5009 1960 c-53 -28 -116 -102 -129 -152 -40 -146 69 -299 224 -315
40 -4 64 -1 97 14 44 20 109 69 109 82 0 4 -18 22 -41 40 l-40 33 -23 -21
c-17 -16 -35 -21 -72 -21 -43 0 -57 5 -88 33 -31 26 -39 40 -43 79 -7 56 17
96 72 122 42 20 79 15 129 -19 l35 -24 35 43 35 43 -22 21 c-64 60 -204 81
-278 42z"/>
<path d="M5528 1740 l3 -240 63 0 63 0 -5 54 c-4 48 -1 56 25 86 l29 32 59
-85 60 -86 83 0 c75 -1 99 7 71 25 -6 3 -43 49 -82 101 -40 53 -79 105 -89
117 -15 20 -14 24 44 96 33 41 75 86 94 99 39 28 45 46 12 37 -13 -3 -51 -6
-85 -6 -44 0 -63 -4 -63 -12 -1 -7 -34 -49 -75 -92 l-75 -79 0 91 0 92 -54 0
c-30 0 -60 2 -68 5 -11 4 -12 -38 -10 -235z"/>
<path d="M6275 1966 c-16 -8 -45 -30 -64 -49 -26 -28 -35 -47 -38 -84 -5 -42
-1 -53 22 -81 36 -43 87 -68 156 -77 71 -9 88 -18 73 -42 -15 -24 -100 -29
-149 -8 -21 8 -41 15 -45 15 -5 0 -22 -19 -39 -42 l-31 -43 52 -23 c121 -53
223 -49 295 13 71 61 81 135 25 187 -38 36 -58 45 -132 58 -75 14 -100 25
-100 45 0 38 105 48 155 15 l29 -19 42 47 41 47 -61 27 c-69 31 -178 38 -231
14z"/>
<path d="M2241 1823 c-330 -2 -478 -7 -488 -14 -8 -8 -13 -35 -13 -80 l0 -69
609 0 609 0 6 23 c3 12 6 47 6 78 0 55 -1 57 -31 63 -17 3 -75 5 -128 4 -53
-2 -309 -4 -570 -5z"/>
<path d="M6918 1821 c-21 -7 -28 -24 -28 -73 0 -35 6 -54 20 -68 20 -20 33
-20 660 -20 l640 0 0 84 0 84 -640 -1 c-352 -1 -645 -4 -652 -6z"/>
</g>
</svg>
